# xmcd CD database file
#
# Track frame offsets:
#	150
#	17613
#	36965
#	53932
#	70433
#	91259
#	106610
#	121800
#	137223
#	151996
#
# Disc length: 2329 seconds
#
# Revision: 1
# Processed by: cddbd v1.5.2PL0 Copyright (c) Steve Scherf et al.
# Submitted via: CDex 1.70beta2
#
DISCID=7d09170a
DTITLE=Esther Phillips - Alone Again, Naturally
DYEAR=1972
DGENRE=Soul
TTITLE0=Use Me (Bill Whiters)
TTITLE1=I Don't Want To Do Wrong (J.Bristol-W.Guest-G.Knight-Schaffner)
TTITLE2=Let's Move And Groove (M.Nash)
TTITLE3=Let Me In Your Life (Bill Whiters)
TTITLE4=Cherry Red (Pete Johnson-Joe Turner)
TTITLE5=I've Never Found A Man (To Love Me Like You Do) (Booker T Jones-Floyd-Isbell)
TTITLE6=Alone Again (Naturally) (R.O'Sullivan)
TTITLE7=Do Right Woman, Do Right Man (Dan Penn-Chips Roach)
TTITLE8=You And Me Together (Jimmy Roach)
TTITLE9=Georgia Rose (A.Sullivan-Flynn-Rosenthal)
EXTD=YEAR: 1972
EXTT0=
EXTT1=
EXTT2=
EXTT3=
EXTT4=
EXTT5=
EXTT6=
EXTT7=
EXTT8=
EXTT9=
PLAYORDER=
